<svg width="25" height="29" viewBox="0 0 25 29" fill="none" xmlns="http://www.w3.org/2000/svg">
<path d="M5.17676 21.4538C5.17676 22.1622 5.75498 22.7404 6.46641 22.7404H7.94072V26.3853C7.94072 27.3087 8.68242 28.0625 9.59365 28.0625C10.5079 28.0625 11.2466 27.3117 11.2466 26.3853V22.7374H13.8198V26.3823C13.8198 27.3056 14.5615 28.0595 15.4728 28.0595C16.387 28.0595 17.1257 27.3087 17.1257 26.3823V22.7374H18.6C19.3114 22.7374 19.8896 22.1592 19.8896 21.4508V9.4867H5.17676V21.4538ZM15.9874 3.28671L17.3467 1.31893C17.4254 1.20389 17.4072 1.0495 17.3013 0.973815C17.1953 0.901158 17.0439 0.937487 16.9652 1.05253L15.5545 3.09901C14.6251 2.7327 13.5897 2.52987 12.5029 2.52987C11.4161 2.52987 10.3808 2.7327 9.45137 3.09901L8.04063 1.05555C7.96191 0.940514 7.81055 0.901159 7.70459 0.976842C7.59863 1.0495 7.58047 1.20087 7.65918 1.32196L9.01846 3.28973C6.85693 4.29481 5.34326 6.19901 5.14951 8.42411H19.8624C19.6626 6.19598 18.1459 4.29178 15.9874 3.28671ZM9.39687 6.38973C9.23581 6.38973 9.07836 6.34197 8.94444 6.25249C8.81052 6.16301 8.70615 6.03582 8.64451 5.88702C8.58287 5.73821 8.56675 5.57447 8.59817 5.4165C8.62959 5.25853 8.70715 5.11343 8.82104 4.99954C8.93493 4.88565 9.08003 4.80809 9.238 4.77667C9.39597 4.74525 9.55971 4.76137 9.70852 4.82301C9.85732 4.88465 9.9845 4.98903 10.074 5.12294C10.1635 5.25687 10.2112 5.41431 10.2112 5.57538C10.2107 5.79118 10.1247 5.99799 9.97209 6.1506C9.81949 6.30319 9.61268 6.38917 9.39687 6.38973ZM15.7059 6.38973C15.5448 6.38973 15.3873 6.34197 15.2534 6.25249C15.1195 6.16301 15.0151 6.03582 14.9535 5.88702C14.8919 5.73821 14.8757 5.57447 14.9072 5.4165C14.9386 5.25853 15.0161 5.11343 15.13 4.99954C15.2439 4.88565 15.389 4.80809 15.547 4.77667C15.705 4.74525 15.8687 4.76137 16.0175 4.82301C16.1663 4.88465 16.2935 4.98903 16.383 5.12294C16.4725 5.25687 16.5202 5.41431 16.5202 5.57538C16.5197 5.79118 16.4337 5.99799 16.2811 6.1506C16.1285 6.30319 15.9217 6.38917 15.7059 6.38973ZM22.4689 9.43827C21.5547 9.43827 20.816 10.189 20.816 11.1154V17.6666C20.816 18.5899 21.5577 19.3437 22.4689 19.3437C23.3832 19.3437 24.1219 18.593 24.1219 17.6666V11.1124C24.1249 10.186 23.3862 9.43827 22.4689 9.43827ZM2.53086 9.43827C1.6166 9.43827 0.87793 10.189 0.87793 11.1154V17.6666C0.87793 18.5899 1.61963 19.3437 2.53086 19.3437C3.44512 19.3437 4.18379 18.593 4.18379 17.6666V11.1124C4.18379 10.186 3.44209 9.43827 2.53086 9.43827Z" fill="#E1DDDD"/>
</svg>
