<svg width="138" height="51" viewBox="0 0 138 51" fill="none" xmlns="http://www.w3.org/2000/svg">
<g clip-path="url(#clip0_9121_552)">
<path d="M2.58289 6.26976C3.98503 6.26976 5.09198 5.0436 5.09198 3.58753C5.09198 2.13146 3.98503 0.981934 2.58289 0.981934C1.18075 0.981934 0 2.13146 0 3.58753C0 5.0436 1.18075 6.26976 2.58289 6.26976ZM0.442781 29.2603H4.5754V13.3202H0.442781V29.2603Z" fill="#EB6D7F"/>
<path d="M9.58862 29.2603H13.7212V21.2902C13.7212 18.7613 15.4924 16.922 17.8539 16.922C20.2892 16.922 21.9865 18.7613 21.9865 21.2902V29.2603H26.1191V21.2902C26.1191 16.309 22.7244 12.937 17.9277 12.937C13.7212 12.937 9.58862 16.309 9.58862 21.2902V29.2603Z" fill="#EB6D7F"/>
<path d="M30.553 29.2604H41.1798C43.7626 29.2604 45.9027 26.8847 45.9027 24.3558C45.9027 21.5203 43.7626 19.4511 41.1798 19.4511H35.2022C34.4642 19.4511 33.9477 18.9147 33.9477 18.1483C33.9477 17.4586 34.538 16.9222 35.2022 16.9222H43.984V13.3203H34.8332C32.2503 13.3203 30.1102 15.6194 30.1102 18.225C30.1102 20.9838 32.2503 23.1296 34.8332 23.1296H40.8108C41.5487 23.1296 42.0653 23.6661 42.0653 24.3558C42.0653 25.1221 41.5487 25.6586 40.8108 25.6586H30.553V29.2604Z" fill="#EB6D7F"/>
<path d="M50.6223 29.2602H54.755V17.3051H56.8213V13.3201H54.755V1.36499H50.6223V13.3201H48.556V17.3051H50.6223V29.2602Z" fill="#EB6D7F"/>
<path d="M67.5182 29.6435C69.4369 29.6435 71.1343 28.9538 72.0936 27.8809V29.2603H76.1526V21.2902C76.1526 16.309 72.684 12.937 67.8872 12.937C63.4594 12.937 59.6219 16.6921 59.6219 21.2902C59.6219 26.2715 62.869 29.6435 67.5182 29.6435ZM67.8872 25.6584C65.5257 25.6584 63.7546 23.7426 63.7546 21.2902C63.7546 18.7613 65.5257 16.922 67.8872 16.922C70.3225 16.922 72.0198 18.7613 72.0198 21.2902C72.0198 23.7426 70.3225 25.6584 67.8872 25.6584Z" fill="#EB6D7F"/>
<path d="M81.1598 29.3378H85.2924V21.3678C85.2924 18.8388 87.0635 16.9996 89.425 16.9996C91.8603 16.9996 93.5577 18.8388 93.5577 21.3678V29.3378H97.6903V21.3678C97.6903 16.3865 94.4432 13.0145 89.794 13.0145C87.8753 13.0145 86.178 13.7043 85.2924 14.7771V1.44263H81.1598V29.3378Z" fill="#03C8A8"/>
<path d="M109.219 29.7201C113.647 29.7201 117.485 25.965 117.485 21.3669C117.485 16.3856 114.016 13.0137 109.219 13.0137C104.792 13.0137 100.954 16.7688 100.954 21.3669C100.954 26.3482 104.423 29.7201 109.219 29.7201ZM109.219 25.7351C106.858 25.7351 105.087 23.8192 105.087 21.3669C105.087 18.8379 106.858 16.9987 109.219 16.9987C111.655 16.9987 113.352 18.8379 113.352 21.3669C113.352 23.8192 111.655 25.7351 109.219 25.7351Z" fill="#03C8A8"/>
<path d="M120.77 37.3068H124.903V28.3405C126.231 29.3367 127.707 29.7199 129.257 29.7199C133.611 29.7199 137.301 25.9648 137.301 21.3667C137.301 16.3854 133.832 13.0134 129.036 13.0134C124.608 13.0134 120.77 16.7686 120.77 21.3667V37.3068ZM129.036 25.7349C126.674 25.7349 124.903 23.819 124.903 21.3667C124.903 18.8377 126.674 16.9985 129.036 16.9985C131.471 16.9985 133.168 18.8377 133.168 21.3667C133.168 23.819 131.471 25.7349 129.036 25.7349Z" fill="#03C8A8"/>
<path d="M87.0803 33.5205C87.0803 44.2156 69.369 45.2922 69.369 33.5205" stroke="#FFA840" stroke-width="4" stroke-linecap="round"/>
</g>
<defs>
<clipPath id="clip0_9121_552">
<rect width="138" height="49.8129" fill="white" transform="translate(0 0.981934)"/>
</clipPath>
</defs>
</svg>