<svg width="20" height="32" viewBox="0 0 20 32" fill="none" xmlns="http://www.w3.org/2000/svg">
<path d="M2.59219 31.6803L0.989211 30.0772C0.77515 29.8636 0.668457 29.6175 0.668457 29.3393C0.668457 29.0618 0.77515 28.8158 0.989211 28.6022L13.5906 16.0002L0.989548 3.39869C0.775487 3.18496 0.668794 2.93901 0.668794 2.66115C0.668794 2.38319 0.775487 2.13723 0.989548 1.92362L2.59264 0.320754C2.80625 0.106693 3.05221 0 3.33017 0C3.60791 0 3.85387 0.10703 4.06748 0.320754L19.0097 15.2626C19.2234 15.4762 19.3302 15.7223 19.3302 16.0002C19.3302 16.278 19.2234 16.5236 19.0097 16.7371L4.06748 31.6803C3.85376 31.8939 3.6078 32 3.33017 32C3.05221 32 2.80625 31.8939 2.59219 31.6803Z" fill="#FFA840"/>
</svg>
