<svg width="20" height="32" viewBox="0 0 20 32" fill="none" xmlns="http://www.w3.org/2000/svg">
<path d="M17.4078 31.6803L19.0108 30.0772C19.2248 29.8636 19.3315 29.6175 19.3315 29.3393C19.3315 29.0618 19.2248 28.8158 19.0108 28.6022L6.40942 16.0002L19.0105 3.39869C19.2245 3.18496 19.3312 2.93901 19.3312 2.66115C19.3312 2.38319 19.2245 2.13723 19.0105 1.92362L17.4074 0.320754C17.1937 0.106693 16.9478 0 16.6698 0C16.3921 0 16.1461 0.10703 15.9325 0.320754L0.990299 15.2626C0.776575 15.4762 0.669769 15.7223 0.669769 16.0002C0.669769 16.278 0.776575 16.5236 0.990299 16.7371L15.9325 31.6803C16.1462 31.8939 16.3922 32 16.6698 32C16.9478 32 17.1937 31.8939 17.4078 31.6803Z" fill="#FFA840"/>
</svg>
