<svg width="26" height="26" viewBox="0 0 26 26" fill="none" xmlns="http://www.w3.org/2000/svg">
<path d="M15.2994 13.0007L25.5236 2.77653C26.1588 2.14185 26.1588 1.11206 25.5236 0.477389C24.8884 -0.157828 23.8597 -0.157828 23.2244 0.477389L13.0003 10.7016L2.77555 0.477389C2.14033 -0.157828 1.11163 -0.157828 0.476413 0.477389C-0.158804 1.11206 -0.158804 2.14185 0.476413 2.77653L10.7011 13.0007L0.476413 23.2249C-0.158804 23.8596 -0.158804 24.8893 0.476413 25.524C0.794021 25.8411 1.21027 25.9999 1.62598 25.9999C2.04169 25.9999 2.45794 25.8411 2.77555 25.5235L13.0003 15.2993L23.2244 25.5235C23.5421 25.8411 23.9583 25.9999 24.374 25.9999C24.7897 25.9999 25.206 25.8411 25.5236 25.5235C26.1588 24.8888 26.1588 23.859 25.5236 23.2243L15.2994 13.0007Z" fill="#979797"/>
</svg>
