<svg width="163" height="48" viewBox="0 0 163 48" fill="none" xmlns="http://www.w3.org/2000/svg">
<path d="M156.932 47.327H6.14324C3.07204 47.327 0.600098 44.8558 0.600098 41.7856V6.14132C0.600098 3.07111 3.07204 0.599976 6.14324 0.599976H156.857C159.928 0.599976 162.4 3.07111 162.4 6.14132V41.8605C162.475 44.8558 160.003 47.327 156.932 47.327Z" fill="black"/>
<path d="M156.931 48H6.14241C2.77157 48 0 45.2293 0 41.8596V6.14041C0 2.77067 2.77157 0 6.14241 0H156.856C160.227 0 162.999 2.77067 162.999 6.14041V41.8596C163.073 45.2293 160.302 48 156.931 48ZM6.14241 1.19813C3.44574 1.19813 1.19852 3.36974 1.19852 6.14041V41.8596C1.19852 44.5554 3.37083 46.8019 6.14241 46.8019H156.856C159.553 46.8019 161.8 44.6303 161.8 41.8596V6.14041C161.8 3.44462 159.628 1.19813 156.856 1.19813H6.14241Z" fill="#A7A9AC"/>
<path d="M54.3071 13.6305L53.6329 15.877H52.1348L54.6816 8.01428H56.5543L59.1012 15.877H57.5281L56.779 13.6305H54.3071ZM56.5543 12.5821L55.955 10.6352C55.8052 10.1859 55.6554 9.58683 55.5805 9.13753C55.4307 9.58683 55.3558 10.111 55.206 10.6352L54.6067 12.5821H56.5543Z" fill="white"/>
<path d="M61.1987 10.1847L62.0976 13.1051C62.2474 13.6293 62.3973 14.0786 62.4722 14.5279C62.5471 14.0786 62.6969 13.6293 62.8467 13.1051L63.7456 10.1847H65.2437L63.0714 15.8758H61.6482L59.5508 10.1847H61.1987Z" fill="white"/>
<path d="M71.0883 14.5277C71.0883 15.0519 71.0883 15.5761 71.1632 15.8756H69.8898L69.8149 15.2765C69.4403 15.7258 68.916 16.0254 68.1669 16.0254C67.0433 16.0254 66.3691 15.2017 66.3691 14.3031C66.3691 12.8803 67.6426 12.1315 69.74 12.1315V12.0566C69.74 11.6822 69.5902 11.0831 68.6164 11.0831C68.092 11.0831 67.4928 11.2329 67.1182 11.5324L66.8186 10.6338C67.268 10.4092 67.9422 10.1096 68.8411 10.1096C70.6389 10.1096 71.1632 11.2329 71.1632 12.5059V14.5277H71.0883ZM69.74 13.1049C68.6913 13.1049 67.7175 13.3296 67.7175 14.1533C67.7175 14.6775 68.092 14.977 68.5415 14.977C69.1407 14.977 69.5153 14.6026 69.6651 14.2282C69.6651 14.1533 69.6651 14.0035 69.6651 13.9287V13.1049H69.74Z" fill="white"/>
<path d="M73.8589 9.36167C73.4094 9.36167 73.0349 8.98726 73.0349 8.61284C73.0349 8.16355 73.3345 7.86401 73.8589 7.86401C74.3832 7.86401 74.6829 8.23843 74.6829 8.61284C74.6829 8.98726 74.3832 9.36167 73.8589 9.36167ZM73.1098 15.8765V10.1854H74.5331V15.8765H73.1098Z" fill="white"/>
<path d="M76.6294 7.5636H78.0526V15.8756H76.6294V7.5636Z" fill="white"/>
<path d="M84.5707 14.5277C84.5707 15.0519 84.5707 15.5761 84.6456 15.8756H83.3722L83.2973 15.2765C82.9228 15.7258 82.3984 16.0254 81.6493 16.0254C80.5257 16.0254 79.8516 15.2017 79.8516 14.3031C79.8516 12.8803 81.125 12.1315 83.2224 12.1315V12.0566C83.2224 11.6822 83.0726 11.0831 82.0988 11.0831C81.5744 11.0831 80.9752 11.2329 80.6006 11.5324L80.301 10.6338C80.7505 10.4092 81.4246 10.1096 82.3235 10.1096C84.1213 10.1096 84.6456 11.2329 84.6456 12.5059V14.5277H84.5707ZM83.2224 13.1049C82.1737 13.1049 81.1999 13.3296 81.1999 14.1533C81.1999 14.6775 81.5744 14.977 82.0239 14.977C82.6231 14.977 82.9977 14.6026 83.1475 14.2282C83.1475 14.1533 83.1475 14.0035 83.1475 13.9287V13.1049H83.2224Z" fill="white"/>
<path d="M86.5923 7.5636H88.0155V10.9333C88.3901 10.4092 88.9893 10.0347 89.8133 10.0347C91.2365 10.0347 92.2103 11.158 92.2103 12.9552C92.2103 14.977 90.9369 16.0254 89.6635 16.0254C88.9144 16.0254 88.2402 15.7258 87.8657 15.0519L87.7908 15.8756H86.5923C86.5923 15.5012 86.6672 14.8273 86.6672 14.3031V7.5636H86.5923ZM88.0904 13.5542C88.0904 13.704 88.0904 13.7789 88.0904 13.9287C88.2402 14.5277 88.7646 14.9021 89.3639 14.9021C90.2627 14.9021 90.7871 14.1533 90.7871 13.0301C90.7871 12.0566 90.3377 11.2329 89.3639 11.2329C88.7646 11.2329 88.2402 11.6822 88.0904 12.2812C88.0904 12.3561 88.0155 12.5059 88.0155 12.6556V13.5542H88.0904Z" fill="white"/>
<path d="M94.0085 7.5636H95.4318V15.8756H94.0085V7.5636Z" fill="white"/>
<path d="M98.5033 13.4045C98.5033 14.4528 99.3273 14.9021 100.226 14.9021C100.9 14.9021 101.35 14.8272 101.799 14.6775L102.024 15.651C101.5 15.8756 100.825 16.0254 100.001 16.0254C98.1288 16.0254 97.0801 14.9021 97.0801 13.1798C97.0801 11.6073 98.0539 10.1096 99.8516 10.1096C101.724 10.1096 102.324 11.6073 102.324 12.8803C102.324 13.1798 102.324 13.3296 102.249 13.4794H98.5033V13.4045ZM101.05 12.431C101.05 11.9068 100.825 11.0082 99.8516 11.0082C98.9528 11.0082 98.5782 11.8319 98.5033 12.431H101.05Z" fill="white"/>
<path d="M109.438 16.0254C107.865 16.0254 106.592 14.9021 106.592 13.1049C106.592 11.2329 107.79 10.1096 109.513 10.1096C111.236 10.1096 112.36 11.3077 112.36 13.0301C112.36 15.0519 110.936 16.0254 109.438 16.0254ZM109.513 14.977C110.337 14.977 110.936 14.1533 110.936 13.0301C110.936 12.1315 110.562 11.0831 109.588 11.0831C108.539 11.0831 108.165 12.0566 108.165 13.0301C108.09 14.1533 108.614 14.977 109.513 14.977Z" fill="white"/>
<path d="M114.083 11.9066C114.083 11.2327 114.083 10.7085 114.008 10.1843H115.281L115.356 11.008C115.581 10.5587 116.255 10.0345 117.154 10.0345C118.128 10.0345 119.176 10.7085 119.176 12.5057V15.8754H117.753V12.6555C117.753 11.8317 117.454 11.2327 116.63 11.2327C116.03 11.2327 115.656 11.6071 115.506 12.0564C115.431 12.2062 115.431 12.3559 115.431 12.5057V15.8754H114.008V11.9066H114.083Z" fill="white"/>
<path d="M125.844 8.68701V10.1847H127.192V11.233H125.844V13.7042C125.844 14.3781 125.993 14.7525 126.593 14.7525C126.817 14.7525 126.967 14.7525 127.117 14.6777V15.8009C126.892 15.8758 126.518 15.9507 126.068 15.9507C125.544 15.9507 125.095 15.8009 124.795 15.5014C124.495 15.2018 124.345 14.6777 124.345 13.9288V11.233H123.521V10.1847H124.345V9.13631L125.844 8.68701Z" fill="white"/>
<path d="M128.84 7.5636H130.264V10.9333C130.413 10.6338 130.713 10.4092 131.013 10.2594C131.312 10.1096 131.612 10.0347 131.986 10.0347C132.96 10.0347 134.009 10.7087 134.009 12.5059V15.8756H132.586V12.6556C132.586 11.8319 132.286 11.2329 131.462 11.2329C130.938 11.2329 130.488 11.6073 130.338 12.0566C130.264 12.2063 130.264 12.3561 130.264 12.5059V15.8756H128.84V7.5636Z" fill="white"/>
<path d="M137.079 13.4045C137.079 14.4528 137.903 14.9021 138.802 14.9021C139.477 14.9021 139.926 14.8272 140.375 14.6775L140.6 15.651C140.076 15.8756 139.402 16.0254 138.578 16.0254C136.705 16.0254 135.656 14.9021 135.656 13.1798C135.656 11.6073 136.63 10.1096 138.428 10.1096C140.301 10.1096 140.9 11.6073 140.9 12.8803C140.9 13.1798 140.9 13.3296 140.825 13.4794H137.079V13.4045ZM139.551 12.431C139.551 11.9068 139.327 11.0082 138.353 11.0082C137.454 11.0082 137.079 11.8319 137.005 12.431H139.551Z" fill="white"/>
<path d="M36.4066 23.5134C36.4066 19.6194 39.6277 17.7474 39.7775 17.5976C37.9797 14.9018 35.1332 14.6023 34.0845 14.5274C31.6875 14.3028 29.3653 15.9502 28.1668 15.9502C26.8934 15.9502 25.0956 14.5274 23.0731 14.6023C20.4514 14.6772 18.0543 16.1748 16.706 18.4962C13.9344 23.2138 16.0318 30.2528 18.6536 34.0719C20.0019 35.9439 21.5001 38.0407 23.5226 37.9658C25.4702 37.8909 26.2192 36.6928 28.6163 36.6928C30.9384 36.6928 31.6875 37.9658 33.71 37.8909C35.8074 37.8909 37.1557 36.0188 38.4291 34.0719C39.9273 31.9002 40.5265 29.8035 40.6015 29.6538C40.5265 29.7286 36.4815 28.1561 36.4066 23.5134Z" fill="white"/>
<path d="M32.5856 12.0563C33.6343 10.7084 34.3834 8.91121 34.1586 7.11401C32.6605 7.1889 30.7129 8.16238 29.5893 9.43539C28.6155 10.5586 27.7166 12.4307 27.9413 14.2279C29.6642 14.3777 31.462 13.3293 32.5856 12.0563Z" fill="white"/>
<path d="M64.8695 37.6666H62.0979L60.5998 32.9489H55.3562L53.933 37.6666H51.2363L56.4049 21.6416H59.626L64.8695 37.6666ZM60.1503 30.9271L58.802 26.7336C58.6522 26.2843 58.3525 25.3109 57.978 23.7383H57.9031C57.7533 24.4123 57.4536 25.4606 57.154 26.7336L55.8057 30.9271H60.1503Z" fill="white"/>
<path d="M78.1273 31.7504C78.1273 33.6974 77.603 35.2699 76.5543 36.3932C75.5805 37.4415 74.3819 37.8908 73.0336 37.8908C71.5355 37.8908 70.4118 37.3666 69.7377 36.2434H69.6628V42.3089H67.1159V29.8783C67.1159 28.6053 67.1159 27.4072 67.041 26.0593H69.2882L69.4381 27.8565H69.513C70.3369 26.5086 71.6853 25.7598 73.4081 25.7598C74.7565 25.7598 75.8801 26.2839 76.8539 27.4072C77.6779 28.5304 78.1273 29.9532 78.1273 31.7504ZM75.5055 31.8253C75.5055 30.702 75.2808 29.8034 74.7565 29.0546C74.2321 28.3058 73.483 27.9314 72.5093 27.9314C71.91 27.9314 71.3107 28.156 70.7864 28.5304C70.262 28.9797 69.9624 29.5039 69.7377 30.1779C69.6628 30.4774 69.5879 30.7769 69.5879 30.9267V32.8736C69.5879 33.6974 69.8126 34.4462 70.3369 34.9704C70.8613 35.5694 71.5355 35.869 72.3594 35.869C73.3332 35.869 74.0823 35.4946 74.6067 34.7457C75.2808 33.9969 75.5055 33.0234 75.5055 31.8253Z" fill="white"/>
<path d="M91.4613 31.7504C91.4613 33.6974 90.9369 35.2699 89.8882 36.3932C88.9144 37.4415 87.7908 37.8908 86.3676 37.8908C84.8694 37.8908 83.7458 37.3666 83.0717 36.2434H82.9968V42.3089H80.4499V29.8783C80.4499 28.6053 80.4499 27.4072 80.375 26.0593H82.6222L82.772 27.8565H82.8469C83.6709 26.5086 85.0193 25.7598 86.7421 25.7598C88.0905 25.7598 89.2141 26.2839 90.1879 27.4072C91.0119 28.5304 91.4613 29.9532 91.4613 31.7504ZM88.8395 31.8253C88.8395 30.702 88.6148 29.8034 88.0905 29.0546C87.5661 28.3058 86.817 27.9314 85.8432 27.9314C85.244 27.9314 84.6447 28.156 84.1204 28.5304C83.596 28.9797 83.2964 29.5039 83.1466 30.1779C83.0717 30.4774 82.9968 30.7769 82.9968 30.9267V32.8736C82.9968 33.6974 83.2215 34.4462 83.7458 34.9704C84.2702 35.5694 84.9443 35.869 85.7683 35.869C86.7421 35.869 87.4912 35.4946 88.0156 34.7457C88.5399 33.9969 88.8395 33.0234 88.8395 31.8253Z" fill="white"/>
<path d="M106.369 33.173C106.369 34.5208 105.92 35.6441 104.946 36.5427C103.897 37.5162 102.474 37.9655 100.602 37.9655C98.8787 37.9655 97.4554 37.6659 96.4067 36.992L97.006 34.8204C98.1296 35.4943 99.403 35.8687 100.751 35.8687C101.725 35.8687 102.474 35.6441 102.999 35.1948C103.523 34.7455 103.823 34.1464 103.823 33.4725C103.823 32.7985 103.598 32.2744 103.148 31.8251C102.699 31.3758 101.95 31.0013 100.901 30.5521C98.0547 29.5037 96.7064 27.9311 96.7064 25.9842C96.7064 24.6363 97.2307 23.5879 98.2045 22.7642C99.1783 21.9405 100.527 21.4912 102.1 21.4912C103.598 21.4912 104.796 21.7159 105.77 22.24L105.096 24.3368C104.197 23.8126 103.148 23.5879 102.025 23.5879C101.126 23.5879 100.377 23.8126 99.9274 24.2619C99.4779 24.6363 99.2532 25.1605 99.2532 25.6847C99.2532 26.2837 99.4779 26.8079 100.002 27.2572C100.452 27.6316 101.201 28.0809 102.324 28.5302C103.673 29.0544 104.721 29.7283 105.396 30.4772C105.995 31.0762 106.369 32.0497 106.369 33.173Z" fill="white"/>
<path d="M114.833 28.0064H111.987V33.6226C111.987 35.0454 112.511 35.7942 113.485 35.7942C113.934 35.7942 114.309 35.7193 114.608 35.6444L114.683 37.5914C114.159 37.8161 113.485 37.8909 112.661 37.8909C111.612 37.8909 110.863 37.5914 110.264 36.9923C109.664 36.3933 109.44 35.3449 109.44 33.8473V28.0064H107.717V26.0594H109.44V23.9627L111.987 23.2139V26.0594H114.833V28.0064Z" fill="white"/>
<path d="M127.643 31.7506C127.643 33.5478 127.119 34.9706 126.145 36.1687C125.096 37.3668 123.673 37.9659 121.875 37.9659C120.152 37.9659 118.804 37.3668 117.83 36.2436C116.856 35.1203 116.332 33.6976 116.332 31.9752C116.332 30.1781 116.856 28.6804 117.905 27.5571C118.954 26.4339 120.377 25.8348 122.1 25.8348C123.823 25.8348 125.171 26.4339 126.22 27.5571C127.194 28.6055 127.643 30.0283 127.643 31.7506ZM124.946 31.8255C124.946 30.7771 124.722 29.8785 124.272 29.0548C123.748 28.1562 122.999 27.632 121.95 27.632C120.901 27.632 120.152 28.0813 119.628 29.0548C119.179 29.8036 118.954 30.7771 118.954 31.8255C118.954 32.8738 119.179 33.7724 119.628 34.5961C120.152 35.4947 120.976 35.944 121.95 35.944C122.924 35.944 123.673 35.4947 124.272 34.5213C124.722 33.8473 124.946 32.9487 124.946 31.8255Z" fill="white"/>
<path d="M136.032 28.3057C135.807 28.2308 135.507 28.2308 135.208 28.2308C134.309 28.2308 133.635 28.6052 133.11 29.2792C132.661 29.8782 132.436 30.6271 132.436 31.6005V37.6661H129.889V29.7285C129.889 28.3806 129.889 27.1824 129.814 26.0592H132.062L132.137 28.3057H132.211C132.511 27.5568 132.886 26.9578 133.485 26.5085C134.084 26.0592 134.683 25.9094 135.358 25.9094C135.582 25.9094 135.807 25.9094 136.032 25.9843V28.3057Z" fill="white"/>
<path d="M147.495 31.301C147.495 31.7503 147.495 32.1247 147.42 32.4991H139.704C139.704 33.6224 140.079 34.521 140.828 35.12C141.502 35.6442 142.326 35.9437 143.375 35.9437C144.498 35.9437 145.547 35.794 146.521 35.4196L146.895 37.2168C145.772 37.6661 144.498 37.9656 143 37.9656C141.203 37.9656 139.779 37.4414 138.805 36.393C137.757 35.3447 137.232 33.9219 137.232 32.1247C137.232 30.4024 137.682 28.9047 138.656 27.7815C139.629 26.5085 140.978 25.9094 142.701 25.9094C144.349 25.9094 145.622 26.5085 146.521 27.7815C147.195 28.6801 147.495 29.8782 147.495 31.301ZM145.098 30.6271C145.098 29.8782 144.948 29.2043 144.573 28.6801C144.124 27.9313 143.45 27.6317 142.551 27.6317C141.727 27.6317 141.053 28.0061 140.528 28.6801C140.079 29.2043 139.854 29.8782 139.779 30.7019H145.098V30.6271Z" fill="white"/>
</svg>

