<svg width="32" height="32" viewBox="0 0 32 32" fill="none" xmlns="http://www.w3.org/2000/svg">
<path d="M16 32C24.8366 32 32 24.8366 32 16C32 7.16344 24.8366 0 16 0C7.16344 0 0 7.16344 0 16C0 24.8366 7.16344 32 16 32Z" fill="#EF72AD"/>
<path d="M16.0001 0C15.2928 0 14.5963 0.0465 13.9131 0.135438C21.7636 1.15813 27.8262 7.87081 27.8262 16C27.8262 24.1292 21.7635 30.8419 13.9131 31.8646C14.5963 31.9535 15.2928 32 16.0001 32C24.8366 32 32.0001 24.8365 32.0001 16C32.0001 7.1635 24.8366 0 16.0001 0Z" fill="#EE539E"/>
<path d="M21.9274 5.73901H10.0724C7.68295 5.73901 5.73901 7.68295 5.73901 10.0724V21.9275C5.73901 24.3169 7.68295 26.2609 10.0724 26.2609H21.9275C24.3169 26.2609 26.2609 24.3169 26.2609 21.9275V10.0724C26.2608 7.68295 24.3168 5.73901 21.9274 5.73901ZM25.2173 21.9274C25.2173 23.7414 23.7414 25.2173 21.9274 25.2173H10.0724C8.25833 25.2173 6.78251 23.7414 6.78251 21.9274V10.0724C6.78251 8.25833 8.25833 6.78251 10.0724 6.78251H21.9275C23.7416 6.78251 25.2174 8.25833 25.2174 10.0724V21.9274H25.2173Z" fill="white"/>
<path d="M16 10.6086C13.0271 10.6086 10.6086 13.0271 10.6086 15.9999C10.6086 18.9727 13.0271 21.3912 16 21.3912C18.9728 21.3912 21.3913 18.9727 21.3913 15.9999C21.3913 13.0271 18.9728 10.6086 16 10.6086ZM16 20.3477C13.6026 20.3477 11.6521 18.3972 11.6521 15.9999C11.6521 13.6026 13.6026 11.6521 16 11.6521C18.3973 11.6521 20.3478 13.6026 20.3478 15.9999C20.3478 18.3972 18.3973 20.3477 16 20.3477Z" fill="white"/>
<path d="M21.5651 11.1303C22.3335 11.1303 22.9565 10.5074 22.9565 9.73897C22.9565 8.97057 22.3335 8.34766 21.5651 8.34766C20.7967 8.34766 20.1738 8.97057 20.1738 9.73897C20.1738 10.5074 20.7967 11.1303 21.5651 11.1303Z" fill="white"/>
</svg>
