<svg width="167" height="50" viewBox="0 0 167 50" fill="none" xmlns="http://www.w3.org/2000/svg">
<path d="M3.12567 6.15692C4.82246 6.15692 6.16203 4.72923 6.16203 3.03385C6.16203 1.33846 4.82246 0 3.12567 0C1.42888 0 0 1.33846 0 3.03385C0 4.72923 1.42888 6.15692 3.12567 6.15692ZM0.535829 32.9262H5.5369V14.3662H0.535829V32.9262Z" fill="#EB6D7F"/>
<path d="M11.6033 32.9261H16.6043V23.6461C16.6043 20.7015 18.7477 18.56 21.6054 18.56C24.5525 18.56 26.6065 20.7015 26.6065 23.6461V32.9261H31.6075V23.6461C31.6075 17.8461 27.4995 13.92 21.6947 13.92C16.6043 13.92 11.6033 17.8461 11.6033 23.6461V32.9261Z" fill="#EB6D7F"/>
<path d="M36.9733 32.9262H49.8332C52.9589 32.9262 55.5487 30.16 55.5487 27.2154C55.5487 23.9138 52.9589 21.5046 49.8332 21.5046H42.5995C41.7065 21.5046 41.0813 20.88 41.0813 19.9877C41.0813 19.1846 41.7958 18.56 42.5995 18.56H53.2268V14.3661H42.153C39.0273 14.3661 36.4375 17.0431 36.4375 20.0769C36.4375 23.2892 39.0273 25.7877 42.153 25.7877H49.3867C50.2797 25.7877 50.9049 26.4123 50.9049 27.2154C50.9049 28.1077 50.2797 28.7323 49.3867 28.7323H36.9733V32.9262Z" fill="#EB6D7F"/>
<path d="M61.2604 32.9261H66.2615V19.0061H68.762V14.3661H66.2615V0.446106H61.2604V14.3661H58.7599V19.0061H61.2604V32.9261Z" fill="#EB6D7F"/>
<path d="M81.7065 33.3723C84.0284 33.3723 86.0824 32.5692 87.2434 31.32V32.9261H92.1553V23.6461C92.1553 17.8461 87.9578 13.92 82.153 13.92C76.7947 13.92 72.1509 18.2923 72.1509 23.6461C72.1509 29.4461 76.0803 33.3723 81.7065 33.3723ZM82.153 28.7323C79.2953 28.7323 77.1519 26.5015 77.1519 23.6461C77.1519 20.7015 79.2953 18.56 82.153 18.56C85.1001 18.56 87.1541 20.7015 87.1541 23.6461C87.1541 26.5015 85.1001 28.7323 82.153 28.7323Z" fill="#EB6D7F"/>
<path d="M98.2152 33.0154H103.216V23.7354C103.216 20.7908 105.36 18.6492 108.217 18.6492C111.164 18.6492 113.218 20.7908 113.218 23.7354V33.0154H118.219V23.7354C118.219 17.9354 114.29 14.0092 108.664 14.0092C106.342 14.0092 104.288 14.8123 103.216 16.0616V0.5354H98.2152V33.0154Z" fill="#03C8A8"/>
<path d="M132.171 33.4616C137.529 33.4616 142.173 29.0893 142.173 23.7355C142.173 17.9355 137.976 14.0093 132.171 14.0093C126.813 14.0093 122.169 18.3816 122.169 23.7355C122.169 29.5355 126.366 33.4616 132.171 33.4616ZM132.171 28.8216C129.313 28.8216 127.17 26.5909 127.17 23.7355C127.17 20.7909 129.313 18.6493 132.171 18.6493C135.118 18.6493 137.172 20.7909 137.172 23.7355C137.172 26.5909 135.118 28.8216 132.171 28.8216Z" fill="#03C8A8"/>
<path d="M146.149 42.2952H151.15V31.8552C152.758 33.0152 154.544 33.4614 156.419 33.4614C161.688 33.4614 166.154 29.0891 166.154 23.7352C166.154 17.9352 161.956 14.0091 156.152 14.0091C150.793 14.0091 146.149 18.3814 146.149 23.7352V42.2952ZM156.152 28.8214C153.294 28.8214 151.15 26.5906 151.15 23.7352C151.15 20.7906 153.294 18.6491 156.152 18.6491C159.099 18.6491 161.153 20.7906 161.153 23.7352C161.153 26.5906 159.099 28.8214 156.152 28.8214Z" fill="#03C8A8"/>
<path d="M105.38 37.8866C105.38 50.3395 83.9465 51.5931 83.9465 37.8866" stroke="#FFA840" stroke-width="4" stroke-linecap="round"/>
</svg>
