<svg width="38" height="43" viewBox="0 0 38 43" fill="none" xmlns="http://www.w3.org/2000/svg">
<g clip-path="url(#clip0_9742_344)">
<path d="M7.89626 27.6185C9.81497 27.6185 11.5123 26.9539 12.4717 25.92V27.2493H16.5306V19.5692C16.5306 14.7692 13.062 11.52 8.26524 11.52C3.83743 11.52 0 15.1385 0 19.5692C0 24.3692 3.24706 27.6185 7.89626 27.6185ZM8.26524 23.7785C5.90374 23.7785 4.13262 21.9323 4.13262 19.5692C4.13262 17.1323 5.90374 15.36 8.26524 15.36C10.7005 15.36 12.3979 17.1323 12.3979 19.5692C12.3979 21.9323 10.7005 23.7785 8.26524 23.7785Z" fill="#EB6D7F"/>
<path d="M21.5381 27.3231H25.6707V19.6431C25.6707 17.2062 27.4418 15.4339 29.8033 15.4339C32.2386 15.4339 33.936 17.2062 33.936 19.6431V27.3231H38.0686V19.6431C38.0686 14.8431 34.8215 11.5939 30.1723 11.5939C28.2536 11.5939 26.5563 12.2585 25.6707 13.2923V0.443115H21.5381V27.3231Z" fill="#03C8A8"/>
<path d="M27.4583 31.3545C27.4583 41.6603 9.74707 42.6978 9.74707 31.3545" stroke="#FFA840" stroke-width="4" stroke-linecap="round"/>
</g>
<defs>
<clipPath id="clip0_9742_344">
<rect width="38" height="43" fill="white"/>
</clipPath>
</defs>
</svg>
