<svg width="32" height="32" viewBox="0 0 32 32" fill="none" xmlns="http://www.w3.org/2000/svg">
<g clip-path="url(#clip0_9121_83)">
<path d="M15.9992 32C24.8356 32 31.9989 24.8367 31.9989 16.0003C31.9989 7.16393 24.8356 0.000610352 15.9992 0.000610352C7.16283 0.000610352 -0.000488281 7.16393 -0.000488281 16.0003C-0.000488281 24.8367 7.16283 32 15.9992 32Z" fill="#CB2027"/>
<path d="M17.2899 21.4256C16.0803 21.332 15.572 20.7322 14.6234 20.1564C14.1021 22.8918 13.4649 25.514 11.5777 26.8839C10.9944 22.7495 12.4327 19.6441 13.1007 16.348C11.9621 14.4313 13.2376 10.5736 15.6391 11.5242C18.5947 12.693 13.0802 18.6507 16.7822 19.3949C20.6471 20.1718 22.2248 12.6887 19.8279 10.2547C16.3649 6.74066 9.74776 10.1749 10.5615 15.2054C10.7597 16.4352 12.0306 16.8086 11.0691 18.5056C8.85277 18.0147 8.19166 16.2667 8.27665 13.9362C8.41384 10.1215 11.7043 7.45055 15.0048 7.08091C19.1788 6.61374 23.0965 8.61363 23.6372 12.5398C24.2456 16.9711 21.7528 21.7701 17.2899 21.4256Z" fill="#F1F2F2"/>
</g>
<defs>
<clipPath id="clip0_9121_83">
<rect width="32" height="32" fill="white"/>
</clipPath>
</defs>
</svg>
