<svg width="32" height="32" viewBox="0 0 32 32" fill="none" xmlns="http://www.w3.org/2000/svg">
<path d="M32 16C32 21.4875 29.2437 26.325 25.0312 29.2062C24.3563 29.6687 23.6437 30.0812 22.9 30.4375C20.8125 31.4375 18.4688 32 16 32C15.0375 32 14.0938 31.9125 13.1812 31.75C11.8687 31.5187 10.6125 31.125 9.43125 30.5938C3.86875 28.0875 0 22.4937 0 16C0 8.875 4.6625 2.83125 11.1 0.7625C11.2625 0.7125 11.4187 0.6625 11.5813 0.61875C12.425 0.375 13.2937 0.2 14.1875 0.1C14.7812 0.03125 15.3875 0 16 0C16.2625 0 16.5187 0.00625 16.7812 0.01875C25.25 0.425 32 7.425 32 16Z" fill="#F1F1F1"/>
<path d="M11.4502 16.5938C8.91267 16.5938 6.86266 18.6438 6.90016 21.1625C6.92516 22.775 7.81267 24.175 9.11892 24.9562C8.67517 24.275 8.41267 23.4688 8.40017 22.6C8.36267 20.0875 10.4127 18.0375 12.9502 18.0375C13.4502 18.0375 13.9314 18.1188 14.3814 18.2625V13.2312C13.9127 13.1625 13.4314 13.125 12.9502 13.125C12.9252 13.125 12.9064 13.125 12.8814 13.125V16.825C12.4314 16.675 11.9502 16.5938 11.4502 16.5938Z" fill="#F00044"/>
<path d="M22.4188 1.5H22.3813H21.0813C21.4563 3.38125 22.5125 5.01875 23.9875 6.13125C23.0188 4.85 22.4313 3.25 22.4188 1.5Z" fill="#F00044"/>
<path d="M30.069 14.0688V9.16259C29.5753 9.16259 29.1003 9.11259 28.6315 9.02509V12.6251C26.9315 12.6251 25.2815 12.2938 23.7315 11.6313C22.7315 11.2063 21.8003 10.6626 20.944 10.0063L20.969 21.1251C20.9565 23.6251 19.969 25.9688 18.1815 27.7376C16.7253 29.1751 14.8815 30.0938 12.8815 30.3876C12.4128 30.4563 11.9315 30.4938 11.4503 30.4938C10.2565 30.4938 9.10029 30.2751 8.01904 29.8688C8.47529 30.1313 8.94404 30.3751 9.43154 30.5938C10.6128 31.1251 11.869 31.5188 13.1815 31.7501C13.4565 31.8001 13.7315 31.8376 14.0128 31.8751C14.1378 31.8626 14.2565 31.8438 14.3815 31.8251C16.3815 31.5313 18.2253 30.6126 19.6815 29.1751C21.469 27.4063 22.4565 25.0626 22.469 22.5626L22.3815 11.4438C23.2315 12.1001 24.1628 12.6501 25.169 13.0688C26.719 13.7313 28.3753 14.0688 30.069 14.0688Z" fill="#F00044"/>
<path d="M4.70615 14.4499C2.9374 16.1999 1.93115 18.5999 1.93115 21.0937C1.93115 22.4937 2.24365 23.8499 2.8249 25.0812C3.41865 25.9437 4.0999 26.7499 4.8499 27.4749C3.9249 26.0062 3.43115 24.3062 3.43115 22.5312C3.43115 20.0374 4.4374 17.6374 6.20615 15.8812C7.9874 14.1124 10.3562 13.1312 12.8812 13.1124V11.7812C12.4124 11.7124 11.9312 11.6749 11.4499 11.6749C8.8999 11.6812 6.50615 12.6624 4.70615 14.4499Z" fill="#08FFF9"/>
<path d="M28.6312 9.01866V7.68116H28.6187C26.8812 7.68116 25.2812 7.10616 23.9937 6.13116C25.1124 7.60616 26.7499 8.65616 28.6312 9.01866Z" fill="#08FFF9"/>
<path d="M12.6938 27.0187C13.2875 27.05 13.8563 26.9688 14.3813 26.8C16.1938 26.2062 17.5 24.5187 17.5 22.5312L17.5063 15.0938V1.5H21.0813C20.9875 1.03125 20.9375 0.55625 20.9313 0.0625H16V13.6438L15.9938 21.0812C15.9938 23.0687 14.6875 24.7563 12.875 25.35C12.35 25.525 11.7813 25.6063 11.1875 25.5688C10.4313 25.525 9.72505 25.3 9.11255 24.9375C9.88755 26.1313 11.2 26.9375 12.6938 27.0187Z" fill="#08FFF9"/>
<path d="M28.6312 12.6312V9.02491C26.7499 8.66241 25.1124 7.61241 23.9937 6.13741C22.5187 5.02491 21.4624 3.38741 21.0874 1.50616H17.5124V15.0874L17.5062 22.5249C17.5062 24.5124 16.1999 26.1999 14.3874 26.7937C13.8624 26.9687 13.2937 27.0499 12.6999 27.0124C11.1999 26.9312 9.89365 26.1249 9.1249 24.9437C7.81865 24.1687 6.93115 22.7624 6.90615 21.1499C6.86865 18.6374 8.91865 16.5874 11.4562 16.5874C11.9562 16.5874 12.4374 16.6687 12.8874 16.8124V13.1124C10.3624 13.1312 7.99365 14.1124 6.2124 15.8812C4.4374 17.6374 3.43115 20.0374 3.43115 22.5312C3.43115 24.3062 3.9249 26.0062 4.8499 27.4749C5.7999 28.3999 6.8624 29.1999 8.01865 29.8687C9.0999 30.2812 10.2562 30.4937 11.4499 30.4937C11.9312 30.4937 12.4124 30.4562 12.8812 30.3874C14.8812 30.0937 16.7249 29.1749 18.1812 27.7374C19.9687 25.9687 20.9562 23.6249 20.9687 21.1249L20.9437 10.0062C21.7937 10.6624 22.7249 11.2124 23.7312 11.6312C25.2812 12.2937 26.9374 12.6312 28.6312 12.6312Z" fill="black"/>
</svg>
