<svg width="32" height="32" viewBox="0 0 32 32" fill="none" xmlns="http://www.w3.org/2000/svg">
<path d="M16.004 0H15.996C7.174 0 0 7.176 0 16C0 19.5 1.128 22.744 3.046 25.378L1.052 31.322L7.202 29.356C9.732 31.032 12.75 32 16.004 32C24.826 32 32 24.822 32 16C32 7.178 24.826 0 16.004 0Z" fill="#4CAF50"/>
<path d="M25.3136 22.5941C24.9276 23.6841 23.3956 24.5881 22.1736 24.8521C21.3376 25.0301 20.2456 25.1721 16.5696 23.6481C11.8676 21.7001 8.83961 16.9221 8.60361 16.6121C8.37761 16.3021 6.70361 14.0821 6.70361 11.7861C6.70361 9.49005 7.86961 8.37205 8.33961 7.89205C8.72561 7.49805 9.36361 7.31805 9.97561 7.31805C10.1736 7.31805 10.3516 7.32805 10.5116 7.33605C10.9816 7.35605 11.2176 7.38405 11.5276 8.12605C11.9136 9.05605 12.8536 11.3521 12.9656 11.5881C13.0796 11.8241 13.1936 12.1441 13.0336 12.4541C12.8836 12.7741 12.7516 12.9161 12.5156 13.1881C12.2796 13.4601 12.0556 13.6681 11.8196 13.9601C11.6036 14.2141 11.3596 14.4861 11.6316 14.9561C11.9036 15.4161 12.8436 16.9501 14.2276 18.1821C16.0136 19.7721 17.4616 20.2801 17.9796 20.4961C18.3656 20.6561 18.8256 20.6181 19.1076 20.3181C19.4656 19.9321 19.9076 19.2921 20.3576 18.6621C20.6776 18.2101 21.0816 18.1541 21.5056 18.3141C21.9376 18.4641 24.2236 19.5941 24.6936 19.8281C25.1636 20.0641 25.4736 20.1761 25.5876 20.3741C25.6996 20.5721 25.6996 21.5021 25.3136 22.5941Z" fill="#FAFAFA"/>
</svg>
