<svg width="18" height="24" viewBox="0 0 18 24" fill="none" xmlns="http://www.w3.org/2000/svg">
<path d="M13.6247 21.8499H4.37472C1.0247 18.6499 3.32472 14.2 6.7247 12.0499C3.27475 9.89997 0.92472 5.39997 4.27474 2.19995H13.5247C16.8747 5.39997 14.5747 9.84995 11.1747 12C14.6747 14.1 17.0247 18.6 13.6247 21.8499Z" fill="#D8D8D8"/>
<path d="M4.72498 17.95C4.72498 17.7001 4.82496 17.45 4.92499 17.15C5.42501 16.95 5.92498 16.75 6.42499 16.5C6.97498 16.3 7.42498 15.95 7.77499 15.5C8.27501 14.9 8.52499 14.15 8.52499 13.35V10.75C7.47499 10.1 4.92499 8.35 4.92499 7H12.975C12.625 8.29998 10.475 9.94998 9.47496 10.7V13.3C9.47496 14.15 9.77496 14.9 10.275 15.5C10.625 15.9 11.075 16.2 11.575 16.4C12.075 16.6 12.625 16.85 13.125 17.05C13.225 17.3 13.325 17.6 13.325 17.85C13.325 22.3501 4.72498 22.4001 4.72498 17.95Z" fill="#FFA840"/>
<path d="M16.175 0H1.77498C1.17498 0 0.724976 0.45 0.724976 1.05V1.10002C0.724976 1.70002 1.17498 2.15002 1.77498 2.15002H16.225C16.825 2.15002 17.275 1.70002 17.275 1.10002V1.05C17.225 0.45 16.775 0 16.175 0Z" fill="#EB6D7F"/>
<path d="M1.77498 23.9999H16.225C16.825 23.9999 17.275 23.5499 17.275 22.9499V22.8998C17.275 22.2999 16.825 21.8499 16.225 21.8499H1.77498C1.17498 21.8499 0.724976 22.2999 0.724976 22.8998V22.9499C0.724976 23.5499 1.17498 23.9999 1.77498 23.9999Z" fill="#EB6D7F"/>
</svg>
