<svg width="20" height="20" viewBox="0 0 20 20" fill="none" xmlns="http://www.w3.org/2000/svg">
<g clip-path="url(#clip0_9121_7)">
<path d="M3.6981 9.67064L3.69812 9.67063C3.13166 8.66618 2.83325 7.53311 2.83325 6.3889C2.83325 2.57014 6.06812 -0.5 9.99993 -0.5C13.9317 -0.5 17.1666 2.57014 17.1666 6.38886C17.1666 7.53291 16.8683 8.666 16.3038 9.66739L16.3014 9.67177L16.3013 9.67176L10.7977 19.2104L3.6981 9.67064ZM3.6981 9.67064L3.70056 9.67489L9.20212 19.2104L3.6981 9.67064ZM9.99993 9.08333C8.41784 9.08333 7.16661 7.8543 7.16661 6.3889C7.16661 4.9235 8.41784 3.69447 9.99993 3.69447C11.582 3.69447 12.8333 4.9235 12.8333 6.3889C12.8333 7.8543 11.582 9.08333 9.99993 9.08333Z" fill="#219653" stroke="#FEFEFE"/>
<path d="M12.8125 6.5625C12.8125 8.1158 11.5533 9.0625 10 9.0625C8.4467 9.0625 7.1875 8.1158 7.1875 6.5625C7.1875 5.0092 8.4467 3.75 10 3.75C11.5533 3.75 12.8125 5.0092 12.8125 6.5625Z" fill="#F8F9FA"/>
</g>
<defs>
<clipPath id="clip0_9121_7">
<rect width="20" height="20" fill="white"/>
</clipPath>
</defs>
</svg>
